# MagicaVoxel @ Ephtracy

# group
o 

# material
mtllib BigSpawnerBuilding.mtl
usemtl palette

# normals
vn -1 0 0
vn 1 0 0
vn 0 0 1
vn 0 0 -1
vn 0 -1 0
vn 0 1 0

# texcoords
vt 0.306641 0.5
vt 0.845703 0.5
vt 0.986328 0.5
vt 0.994141 0.5

# verts
v -0.3 0 0.3
v -0.3 0 -0.3
v -0.3 0.2 0.1
v -0.3 0.2 -0.2
v -0.3 0.3 0.1
v -0.3 0.3 -0.2
v -0.3 0.4 0.3
v -0.3 0.4 0.2
v -0.3 0.4 0.1
v -0.3 0.4 -0.2
v -0.3 0.5 0.1
v -0.3 0.5 -0.2
v -0.3 0.6 0.1
v -0.3 0.6 -0.2
v -0.3 0.7 0.1
v -0.3 0.7 -0.2
v -0.3 0.8 0.1
v -0.3 0.8 -0.2
v -0.3 0.9 0.1
v -0.3 0.9 -0.2
v -0.3 1 0.2
v -0.3 1 -0.2
v -0.3 1 -0.3
v -0.3 1.4 -0.2
v -0.3 1.4 -0.3
v -0.3 1.5 -0.2
v -0.3 1.5 -0.3
v -0.2 0.4 0.3
v -0.2 0.4 0.2
v -0.2 0.5 0.3
v -0.2 0.5 0.2
v 0.2 0 0.3
v 0.2 0 0.1
v 0.2 0.4 0.3
v 0.2 0.4 0.1
v -0.2 0 0.3
v -0.2 0 0.1
v -0.2 0.4 0.3
v -0.2 0.4 0.1
v -0.2 1 -0.2
v -0.2 1 -0.3
v -0.2 1.4 -0.2
v -0.2 1.4 -0.3
v -0.2 1.5 -0.2
v -0.2 1.5 -0.3
v 0.2 0.4 0.3
v 0.2 0.4 0.2
v 0.2 0.5 0.3
v 0.2 0.5 0.2
v 0.3 0 0.3
v 0.3 0 -0.3
v 0.3 0.2 0.1
v 0.3 0.2 -0.2
v 0.3 0.3 0.1
v 0.3 0.3 -0.2
v 0.3 0.4 0.3
v 0.3 0.4 0.2
v 0.3 0.4 0.1
v 0.3 0.4 -0.2
v 0.3 0.5 0.1
v 0.3 0.5 -0.2
v 0.3 0.6 0.1
v 0.3 0.6 -0.2
v 0.3 0.7 0.1
v 0.3 0.7 -0.2
v 0.3 0.8 0.1
v 0.3 0.8 -0.2
v 0.3 0.9 0.1
v 0.3 0.9 -0.2
v 0.3 1 0.2
v 0.3 1 -0.3
v -0.3 0 0.3
v -0.3 0.4 0.3
v -0.2 0 0.3
v -0.2 0.4 0.3
v -0.2 0.5 0.3
v 0.2 0 0.3
v 0.2 0.4 0.3
v 0.2 0.5 0.3
v 0.3 0 0.3
v 0.3 0.4 0.3
v -0.3 0.4 0.2
v -0.3 1 0.2
v -0.2 0.4 0.2
v -0.2 0.5 0.2
v -0.2 0.6 0.2
v -0.2 0.9 0.2
v -0.1 0.6 0.2
v -0.1 0.9 0.2
v 0.1 0.6 0.2
v 0.1 0.9 0.2
v 0.2 0.4 0.2
v 0.2 0.5 0.2
v 0.2 0.6 0.2
v 0.2 0.9 0.2
v 0.3 0.4 0.2
v 0.3 1 0.2
v -0.2 0 0.1
v -0.2 0.4 0.1
v 0.2 0 0.1
v 0.2 0.4 0.1
v -0.3 1 -0.2
v -0.3 1.4 -0.2
v -0.3 1.5 -0.2
v -0.2 1 -0.2
v -0.2 1.4 -0.2
v -0.2 1.5 -0.2
v -0.3 0 -0.3
v -0.3 1 -0.3
v -0.3 1.4 -0.3
v -0.3 1.5 -0.3
v -0.2 0.2 -0.3
v -0.2 0.3 -0.3
v -0.2 0.4 -0.3
v -0.2 0.5 -0.3
v -0.2 0.6 -0.3
v -0.2 0.7 -0.3
v -0.2 0.8 -0.3
v -0.2 0.9 -0.3
v -0.2 1 -0.3
v -0.2 1.4 -0.3
v -0.2 1.5 -0.3
v 0.2 0.2 -0.3
v 0.2 0.3 -0.3
v 0.2 0.4 -0.3
v 0.2 0.5 -0.3
v 0.2 0.6 -0.3
v 0.2 0.7 -0.3
v 0.2 0.8 -0.3
v 0.2 0.9 -0.3
v 0.3 0 -0.3
v 0.3 1 -0.3
v -0.3 0 0.3
v -0.2 0 0.3
v 0.2 0 0.3
v 0.3 0 0.3
v -0.2 0 0.1
v 0.2 0 0.1
v -0.2 0 0
v 0.2 0 0
v -0.3 0 -0.3
v 0.3 0 -0.3
v -0.2 0.4 0.3
v 0.2 0.4 0.3
v -0.2 0.4 0.1
v 0.2 0.4 0.1
v -0.3 0.4 0.3
v -0.2 0.4 0.3
v 0.2 0.4 0.3
v 0.3 0.4 0.3
v -0.3 0.4 0.2
v -0.2 0.4 0.2
v 0.2 0.4 0.2
v 0.3 0.4 0.2
v -0.2 0.5 0.3
v 0.2 0.5 0.3
v -0.2 0.5 0.2
v 0.2 0.5 0.2
v -0.3 1 0.2
v 0.3 1 0.2
v -0.2 1 0.1
v -0.1 1 0.1
v 0.1 1 0.1
v 0.2 1 0.1
v -0.3 1 -0.2
v -0.2 1 -0.2
v -0.1 1 -0.2
v 0.1 1 -0.2
v 0.2 1 -0.2
v -0.2 1 -0.3
v 0.3 1 -0.3
v -0.3 1.5 -0.2
v -0.2 1.5 -0.2
v -0.3 1.5 -0.3
v -0.2 1.5 -0.3

# faces
f 3/1/1 2/1/1 1/1/1
f 4/1/1 2/1/1 3/1/1
f 5/1/1 3/1/1 1/1/1
f 5/4/1 4/4/1 3/4/1
f 6/1/1 2/1/1 4/1/1
f 6/4/1 4/4/1 5/4/1
f 7/1/1 5/1/1 1/1/1
f 7/1/1 6/1/1 5/1/1
f 8/1/1 6/1/1 7/1/1
f 9/1/1 6/1/1 8/1/1
f 10/1/1 2/1/1 6/1/1
f 10/1/1 6/1/1 9/1/1
f 11/1/1 9/1/1 8/1/1
f 11/4/1 10/4/1 9/4/1
f 12/1/1 2/1/1 10/1/1
f 12/4/1 10/4/1 11/4/1
f 13/1/1 11/1/1 8/1/1
f 13/1/1 12/1/1 11/1/1
f 14/1/1 2/1/1 12/1/1
f 14/1/1 12/1/1 13/1/1
f 15/1/1 13/1/1 8/1/1
f 15/4/1 14/4/1 13/4/1
f 16/1/1 2/1/1 14/1/1
f 16/4/1 14/4/1 15/4/1
f 17/1/1 15/1/1 8/1/1
f 17/1/1 16/1/1 15/1/1
f 18/1/1 2/1/1 16/1/1
f 18/1/1 16/1/1 17/1/1
f 19/1/1 17/1/1 8/1/1
f 19/4/1 18/4/1 17/4/1
f 20/1/1 2/1/1 18/1/1
f 20/4/1 18/4/1 19/4/1
f 21/1/1 19/1/1 8/1/1
f 21/1/1 20/1/1 19/1/1
f 22/1/1 2/1/1 20/1/1
f 22/1/1 20/1/1 21/1/1
f 23/1/1 2/1/1 22/1/1
f 24/3/1 23/3/1 22/3/1
f 25/3/1 23/3/1 24/3/1
f 26/2/1 25/2/1 24/2/1
f 27/2/1 25/2/1 26/2/1
f 30/1/1 29/1/1 28/1/1
f 31/1/1 29/1/1 30/1/1
f 34/1/1 33/1/1 32/1/1
f 35/1/1 33/1/1 34/1/1
f 36/1/2 37/1/2 38/1/2
f 38/1/2 37/1/2 39/1/2
f 40/3/2 41/3/2 42/3/2
f 42/3/2 41/3/2 43/3/2
f 42/2/2 43/2/2 44/2/2
f 44/2/2 43/2/2 45/2/2
f 46/1/2 47/1/2 48/1/2
f 48/1/2 47/1/2 49/1/2
f 50/1/2 51/1/2 52/1/2
f 52/1/2 51/1/2 53/1/2
f 50/1/2 52/1/2 54/1/2
f 52/4/2 53/4/2 54/4/2
f 53/1/2 51/1/2 55/1/2
f 54/4/2 53/4/2 55/4/2
f 50/1/2 54/1/2 56/1/2
f 54/1/2 55/1/2 56/1/2
f 56/1/2 55/1/2 57/1/2
f 57/1/2 55/1/2 58/1/2
f 55/1/2 51/1/2 59/1/2
f 58/1/2 55/1/2 59/1/2
f 57/1/2 58/1/2 60/1/2
f 58/4/2 59/4/2 60/4/2
f 59/1/2 51/1/2 61/1/2
f 60/4/2 59/4/2 61/4/2
f 57/1/2 60/1/2 62/1/2
f 60/1/2 61/1/2 62/1/2
f 61/1/2 51/1/2 63/1/2
f 62/1/2 61/1/2 63/1/2
f 57/1/2 62/1/2 64/1/2
f 62/4/2 63/4/2 64/4/2
f 63/1/2 51/1/2 65/1/2
f 64/4/2 63/4/2 65/4/2
f 57/1/2 64/1/2 66/1/2
f 64/1/2 65/1/2 66/1/2
f 65/1/2 51/1/2 67/1/2
f 66/1/2 65/1/2 67/1/2
f 57/1/2 66/1/2 68/1/2
f 66/4/2 67/4/2 68/4/2
f 67/1/2 51/1/2 69/1/2
f 68/4/2 67/4/2 69/4/2
f 57/1/2 68/1/2 70/1/2
f 68/1/2 69/1/2 70/1/2
f 69/1/2 51/1/2 71/1/2
f 70/1/2 69/1/2 71/1/2
f 74/1/3 73/1/3 72/1/3
f 75/1/3 73/1/3 74/1/3
f 78/1/3 76/1/3 75/1/3
f 79/1/3 76/1/3 78/1/3
f 80/1/3 78/1/3 77/1/3
f 81/1/3 78/1/3 80/1/3
f 84/1/3 83/1/3 82/1/3
f 85/1/3 83/1/3 84/1/3
f 86/1/3 83/1/3 85/1/3
f 87/1/3 83/1/3 86/1/3
f 88/1/3 86/1/3 85/1/3
f 88/4/3 87/4/3 86/4/3
f 89/1/3 83/1/3 87/1/3
f 89/4/3 87/4/3 88/4/3
f 90/1/3 88/1/3 85/1/3
f 90/1/3 89/1/3 88/1/3
f 91/1/3 83/1/3 89/1/3
f 91/1/3 89/1/3 90/1/3
f 93/1/3 90/1/3 85/1/3
f 94/4/3 91/4/3 90/4/3
f 94/1/3 90/1/3 93/1/3
f 95/1/3 83/1/3 91/1/3
f 95/4/3 91/4/3 94/4/3
f 96/1/3 94/1/3 93/1/3
f 96/1/3 93/1/3 92/1/3
f 96/1/3 95/1/3 94/1/3
f 97/1/3 83/1/3 95/1/3
f 97/1/3 95/1/3 96/1/3
f 100/4/3 99/4/3 98/4/3
f 101/4/3 99/4/3 100/4/3
f 105/3/3 103/3/3 102/3/3
f 106/2/3 104/2/3 103/2/3
f 106/3/3 103/3/3 105/3/3
f 107/2/3 104/2/3 106/2/3
f 108/1/4 109/1/4 112/1/4
f 112/1/4 109/1/4 113/1/4
f 113/1/4 109/1/4 114/1/4
f 114/1/4 109/1/4 115/1/4
f 115/1/4 109/1/4 116/1/4
f 116/1/4 109/1/4 117/1/4
f 117/1/4 109/1/4 118/1/4
f 118/1/4 109/1/4 119/1/4
f 109/3/4 110/3/4 120/3/4
f 119/1/4 109/1/4 120/1/4
f 110/2/4 111/2/4 121/2/4
f 120/3/4 110/3/4 121/3/4
f 121/2/4 111/2/4 122/2/4
f 108/1/4 112/1/4 123/1/4
f 112/4/4 113/4/4 123/4/4
f 113/1/4 114/1/4 124/1/4
f 123/4/4 113/4/4 124/4/4
f 114/4/4 115/4/4 125/4/4
f 124/1/4 114/1/4 125/1/4
f 115/1/4 116/1/4 126/1/4
f 125/4/4 115/4/4 126/4/4
f 116/4/4 117/4/4 127/4/4
f 126/1/4 116/1/4 127/1/4
f 117/1/4 118/1/4 128/1/4
f 127/4/4 117/4/4 128/4/4
f 118/4/4 119/4/4 129/4/4
f 128/1/4 118/1/4 129/1/4
f 119/1/4 120/1/4 130/1/4
f 129/4/4 119/4/4 130/4/4
f 128/1/4 129/1/4 131/1/4
f 127/1/4 128/1/4 131/1/4
f 129/1/4 130/1/4 131/1/4
f 125/1/4 126/1/4 131/1/4
f 124/1/4 125/1/4 131/1/4
f 123/1/4 124/1/4 131/1/4
f 108/1/4 123/1/4 131/1/4
f 126/1/4 127/1/4 131/1/4
f 130/1/4 120/1/4 132/1/4
f 131/1/4 130/1/4 132/1/4
f 137/1/5 134/1/5 133/1/5
f 138/1/5 136/1/5 135/1/5
f 139/1/5 137/1/5 133/1/5
f 139/4/5 138/4/5 137/4/5
f 140/1/5 136/1/5 138/1/5
f 140/4/5 138/4/5 139/4/5
f 141/1/5 139/1/5 133/1/5
f 141/1/5 140/1/5 139/1/5
f 142/1/5 136/1/5 140/1/5
f 142/1/5 140/1/5 141/1/5
f 145/1/5 144/1/5 143/1/5
f 146/1/5 144/1/5 145/1/5
f 147/1/6 148/1/6 151/1/6
f 151/1/6 148/1/6 152/1/6
f 149/1/6 150/1/6 153/1/6
f 153/1/6 150/1/6 154/1/6
f 155/1/6 156/1/6 157/1/6
f 157/1/6 156/1/6 158/1/6
f 159/1/6 160/1/6 161/1/6
f 161/1/6 160/1/6 162/1/6
f 162/1/6 160/1/6 163/1/6
f 163/1/6 160/1/6 164/1/6
f 159/1/6 161/1/6 165/1/6
f 161/4/6 162/4/6 166/4/6
f 165/1/6 161/1/6 166/1/6
f 162/1/6 163/1/6 167/1/6
f 166/4/6 162/4/6 167/4/6
f 163/4/6 164/4/6 168/4/6
f 167/1/6 163/1/6 168/1/6
f 164/1/6 160/1/6 169/1/6
f 168/4/6 164/4/6 169/4/6
f 167/1/6 168/1/6 170/1/6
f 168/1/6 169/1/6 170/1/6
f 166/1/6 167/1/6 170/1/6
f 169/1/6 160/1/6 171/1/6
f 170/1/6 169/1/6 171/1/6
f 172/2/6 173/2/6 174/2/6
f 174/2/6 173/2/6 175/2/6
