# MagicaVoxel @ Ephtracy

# group
o 

# material
mtllib SmallSpawnerBuilding.mtl
usemtl palette

# normals
vn -1 0 0
vn 1 0 0
vn 0 0 1
vn 0 0 -1
vn 0 -1 0
vn 0 1 0

# texcoords
vt 0.306641 0.5
vt 0.994141 0.5

# verts
v -0.3 0 0.2
v -0.3 0 -0.3
v -0.3 0.2 0.1
v -0.3 0.2 -0.2
v -0.3 0.3 0.1
v -0.3 0.3 -0.2
v -0.3 0.4 0.1
v -0.3 0.4 -0.2
v -0.3 0.5 0.1
v -0.3 0.5 -0.2
v -0.3 0.6 0.1
v -0.3 0.6 -0.2
v -0.3 0.7 0.1
v -0.3 0.7 -0.2
v -0.3 0.8 0.2
v -0.3 0.8 -0.3
v 0.2 0 0.2
v 0.2 0 0.1
v 0.2 0.4 0.2
v 0.2 0.4 0.1
v -0.2 0 0.2
v -0.2 0 0.1
v -0.2 0.4 0.2
v -0.2 0.4 0.1
v 0.3 0 0.2
v 0.3 0 -0.3
v 0.3 0.2 0.1
v 0.3 0.2 -0.2
v 0.3 0.3 0.1
v 0.3 0.3 -0.2
v 0.3 0.4 0.1
v 0.3 0.4 -0.2
v 0.3 0.5 0.1
v 0.3 0.5 -0.2
v 0.3 0.6 0.1
v 0.3 0.6 -0.2
v 0.3 0.7 0.1
v 0.3 0.7 -0.2
v 0.3 0.8 0.2
v 0.3 0.8 -0.3
v -0.3 0 0.2
v -0.3 0.8 0.2
v -0.2 0 0.2
v -0.2 0.4 0.2
v -0.2 0.6 0.2
v -0.2 0.7 0.2
v -0.1 0.6 0.2
v -0.1 0.7 0.2
v 0.1 0.6 0.2
v 0.1 0.7 0.2
v 0.2 0 0.2
v 0.2 0.4 0.2
v 0.2 0.6 0.2
v 0.2 0.7 0.2
v 0.3 0 0.2
v 0.3 0.8 0.2
v -0.2 0 0.1
v -0.2 0.4 0.1
v 0.2 0 0.1
v 0.2 0.4 0.1
v -0.3 0 -0.3
v -0.3 0.8 -0.3
v -0.2 0.2 -0.3
v -0.2 0.3 -0.3
v -0.2 0.4 -0.3
v -0.2 0.5 -0.3
v -0.2 0.6 -0.3
v -0.2 0.7 -0.3
v 0.2 0.2 -0.3
v 0.2 0.3 -0.3
v 0.2 0.4 -0.3
v 0.2 0.5 -0.3
v 0.2 0.6 -0.3
v 0.2 0.7 -0.3
v 0.3 0 -0.3
v 0.3 0.8 -0.3
v -0.3 0 0.2
v -0.2 0 0.2
v 0.2 0 0.2
v 0.3 0 0.2
v -0.2 0 0.1
v 0.2 0 0.1
v -0.2 0 0
v 0.2 0 0
v -0.3 0 -0.3
v 0.3 0 -0.3
v -0.2 0.4 0.2
v 0.2 0.4 0.2
v -0.2 0.4 0.1
v 0.2 0.4 0.1
v -0.3 0.8 0.2
v 0.3 0.8 0.2
v -0.2 0.8 0.1
v -0.1 0.8 0.1
v 0.1 0.8 0.1
v 0.2 0.8 0.1
v -0.2 0.8 -0.2
v -0.1 0.8 -0.2
v 0.1 0.8 -0.2
v 0.2 0.8 -0.2
v -0.3 0.8 -0.3
v 0.3 0.8 -0.3

# faces
f 3/1/1 2/1/1 1/1/1
f 4/1/1 2/1/1 3/1/1
f 5/1/1 3/1/1 1/1/1
f 5/2/1 4/2/1 3/2/1
f 6/1/1 2/1/1 4/1/1
f 6/2/1 4/2/1 5/2/1
f 7/1/1 5/1/1 1/1/1
f 7/1/1 6/1/1 5/1/1
f 8/1/1 2/1/1 6/1/1
f 8/1/1 6/1/1 7/1/1
f 9/1/1 7/1/1 1/1/1
f 9/2/1 8/2/1 7/2/1
f 10/1/1 2/1/1 8/1/1
f 10/2/1 8/2/1 9/2/1
f 11/1/1 9/1/1 1/1/1
f 11/1/1 10/1/1 9/1/1
f 12/1/1 2/1/1 10/1/1
f 12/1/1 10/1/1 11/1/1
f 13/1/1 11/1/1 1/1/1
f 13/2/1 12/2/1 11/2/1
f 14/1/1 2/1/1 12/1/1
f 14/2/1 12/2/1 13/2/1
f 15/1/1 13/1/1 1/1/1
f 15/1/1 14/1/1 13/1/1
f 16/1/1 2/1/1 14/1/1
f 16/1/1 14/1/1 15/1/1
f 19/1/1 18/1/1 17/1/1
f 20/1/1 18/1/1 19/1/1
f 21/1/2 22/1/2 23/1/2
f 23/1/2 22/1/2 24/1/2
f 25/1/2 26/1/2 27/1/2
f 27/1/2 26/1/2 28/1/2
f 25/1/2 27/1/2 29/1/2
f 27/2/2 28/2/2 29/2/2
f 28/1/2 26/1/2 30/1/2
f 29/2/2 28/2/2 30/2/2
f 25/1/2 29/1/2 31/1/2
f 29/1/2 30/1/2 31/1/2
f 30/1/2 26/1/2 32/1/2
f 31/1/2 30/1/2 32/1/2
f 25/1/2 31/1/2 33/1/2
f 31/2/2 32/2/2 33/2/2
f 32/1/2 26/1/2 34/1/2
f 33/2/2 32/2/2 34/2/2
f 25/1/2 33/1/2 35/1/2
f 33/1/2 34/1/2 35/1/2
f 34/1/2 26/1/2 36/1/2
f 35/1/2 34/1/2 36/1/2
f 25/1/2 35/1/2 37/1/2
f 35/2/2 36/2/2 37/2/2
f 36/1/2 26/1/2 38/1/2
f 37/2/2 36/2/2 38/2/2
f 25/1/2 37/1/2 39/1/2
f 37/1/2 38/1/2 39/1/2
f 38/1/2 26/1/2 40/1/2
f 39/1/2 38/1/2 40/1/2
f 43/1/3 42/1/3 41/1/3
f 44/1/3 42/1/3 43/1/3
f 45/1/3 42/1/3 44/1/3
f 46/1/3 42/1/3 45/1/3
f 47/1/3 45/1/3 44/1/3
f 47/2/3 46/2/3 45/2/3
f 48/1/3 42/1/3 46/1/3
f 48/2/3 46/2/3 47/2/3
f 49/1/3 47/1/3 44/1/3
f 49/1/3 48/1/3 47/1/3
f 50/1/3 42/1/3 48/1/3
f 50/1/3 48/1/3 49/1/3
f 52/1/3 49/1/3 44/1/3
f 53/2/3 50/2/3 49/2/3
f 53/1/3 49/1/3 52/1/3
f 54/1/3 42/1/3 50/1/3
f 54/2/3 50/2/3 53/2/3
f 55/1/3 53/1/3 52/1/3
f 55/1/3 52/1/3 51/1/3
f 55/1/3 54/1/3 53/1/3
f 56/1/3 42/1/3 54/1/3
f 56/1/3 54/1/3 55/1/3
f 59/2/3 58/2/3 57/2/3
f 60/2/3 58/2/3 59/2/3
f 61/1/4 62/1/4 63/1/4
f 63/1/4 62/1/4 64/1/4
f 64/1/4 62/1/4 65/1/4
f 65/1/4 62/1/4 66/1/4
f 66/1/4 62/1/4 67/1/4
f 67/1/4 62/1/4 68/1/4
f 61/1/4 63/1/4 69/1/4
f 63/2/4 64/2/4 69/2/4
f 64/1/4 65/1/4 70/1/4
f 69/2/4 64/2/4 70/2/4
f 65/2/4 66/2/4 71/2/4
f 70/1/4 65/1/4 71/1/4
f 66/1/4 67/1/4 72/1/4
f 71/2/4 66/2/4 72/2/4
f 67/2/4 68/2/4 73/2/4
f 72/1/4 67/1/4 73/1/4
f 68/1/4 62/1/4 74/1/4
f 73/2/4 68/2/4 74/2/4
f 72/1/4 73/1/4 75/1/4
f 71/1/4 72/1/4 75/1/4
f 73/1/4 74/1/4 75/1/4
f 70/1/4 71/1/4 75/1/4
f 69/1/4 70/1/4 75/1/4
f 61/1/4 69/1/4 75/1/4
f 74/1/4 62/1/4 76/1/4
f 75/1/4 74/1/4 76/1/4
f 81/1/5 78/1/5 77/1/5
f 82/1/5 80/1/5 79/1/5
f 83/1/5 81/1/5 77/1/5
f 83/2/5 82/2/5 81/2/5
f 84/1/5 80/1/5 82/1/5
f 84/2/5 82/2/5 83/2/5
f 85/1/5 83/1/5 77/1/5
f 85/1/5 84/1/5 83/1/5
f 86/1/5 80/1/5 84/1/5
f 86/1/5 84/1/5 85/1/5
f 89/1/5 88/1/5 87/1/5
f 90/1/5 88/1/5 89/1/5
f 91/1/6 92/1/6 93/1/6
f 93/1/6 92/1/6 94/1/6
f 94/1/6 92/1/6 95/1/6
f 95/1/6 92/1/6 96/1/6
f 91/1/6 93/1/6 97/1/6
f 93/2/6 94/2/6 97/2/6
f 94/1/6 95/1/6 98/1/6
f 97/2/6 94/2/6 98/2/6
f 95/2/6 96/2/6 99/2/6
f 98/1/6 95/1/6 99/1/6
f 96/1/6 92/1/6 100/1/6
f 99/2/6 96/2/6 100/2/6
f 98/1/6 99/1/6 101/1/6
f 97/1/6 98/1/6 101/1/6
f 99/1/6 100/1/6 101/1/6
f 91/1/6 97/1/6 101/1/6
f 100/1/6 92/1/6 102/1/6
f 101/1/6 100/1/6 102/1/6
